Adsworth-24PTG0XT1.ufo
<glyph name="E" format="2">
  <advance width="1346.0"/>
  <outline>
    <contour>
      <point x="260.0" y="0.0" type="line"/>
      <point x="260.0" y="1500.0" type="line"/>
      <point x="300.0" y="1500.0" type="line"/>
      <point x="300.0" y="0.0" type="line"/>
    </contour>
    <contour>
      <point x="1166.0" y="784.0" type="line"/>
      <point x="280.0" y="784.0" type="line"/>
      <point x="280.0" y="827.0" type="line"/>
      <point x="1166.0" y="827.0" type="line"/>
    </contour>
    <contour>
      <point x="1326.0" y="1457.0" type="line"/>
      <point x="280.0" y="1457.0" type="line"/>
      <point x="280.0" y="1500.0" type="line"/>
      <point x="1326.0" y="1500.0" type="line"/>
    </contour>
    <contour>
      <point x="1326.0" y="0.0" type="line"/>
      <point x="280.0" y="0.0" type="line"/>
      <point x="280.0" y="41.0" type="line"/>
      <point x="1326.0" y="41.0" type="line"/>
    </contour>
  </outline>
</glyph>
<glyph name="G" format="2">
  <advance width="1996.0"/>
  <outline>
    <contour>
      <point x="1065.0" y="15.0" type="line" smooth="yes"/>
      <point x="1453.0" y="15.0"/>
      <point x="1873.0" y="312.0"/>
      <point x="1880.0" y="643.0" type="qcurve" smooth="yes"/>
      <point x="1879.0" y="652.0" type="line"/>
      <point x="1054.0" y="651.0" type="line"/>
      <point x="1054.0" y="687.0" type="line"/>
      <point x="1926.0" y="688.0" type="line"/>
      <point x="1925.0" y="628.0" type="line" smooth="yes"/>
      <point x="1918.0" y="298.0"/>
      <point x="1467.0" y="-24.0"/>
      <point x="1070.0" y="-24.0" type="qcurve" smooth="yes"/>
      <point x="1058.0" y="-24.0" type="line" smooth="yes"/>
      <point x="605.0" y="-24.0"/>
      <point x="116.0" y="385.0"/>
      <point x="116.0" y="741.0" type="qcurve" smooth="yes"/>
      <point x="116.0" y="754.0" type="line" smooth="yes"/>
      <point x="116.0" y="1126.0"/>
      <point x="637.0" y="1524.0"/>
      <point x="1041.0" y="1524.0" type="qcurve" smooth="yes"/>
      <point x="1055.0" y="1524.0" type="line" smooth="yes"/>
      <point x="1432.0" y="1524.0"/>
      <point x="1857.0" y="1246.0"/>
      <point x="1872.0" y="1018.0" type="qcurve" smooth="yes"/>
      <point x="1875.0" y="986.0" type="line"/>
      <point x="1831.0" y="986.0" type="line"/>
      <point x="1831.0" y="999.0" type="line" smooth="yes"/>
      <point x="1831.0" y="1220.0"/>
      <point x="1416.0" y="1479.0"/>
      <point x="1062.0" y="1479.0" type="qcurve" smooth="yes"/>
      <point x="1048.0" y="1479.0" type="line" smooth="yes"/>
      <point x="670.0" y="1479.0"/>
      <point x="159.0" y="1107.0"/>
      <point x="159.0" y="758.0" type="qcurve" smooth="yes"/>
      <point x="159.0" y="738.0" type="line" smooth="yes"/>
      <point x="159.0" y="401.0"/>
      <point x="624.0" y="15.0"/>
      <point x="1057.0" y="15.0" type="qcurve" smooth="yes"/>
    </contour>
  </outline>
</glyph>
<glyph name="H" format="2">
  <advance width="1882.0"/>
  <outline>
    <contour>
      <point x="266.0" y="0.0" type="line"/>
      <point x="266.0" y="1500.0" type="line"/>
      <point x="306.0" y="1500.0" type="line"/>
      <point x="306.0" y="0.0" type="line"/>
    </contour>
    <contour>
      <point x="1576.0" y="0.0" type="line"/>
      <point x="1576.0" y="1500.0" type="line"/>
      <point x="1616.0" y="1500.0" type="line"/>
      <point x="1616.0" y="0.0" type="line"/>
    </contour>
    <contour>
      <point x="1596.0" y="784.0" type="line"/>
      <point x="286.0" y="784.0" type="line"/>
      <point x="286.0" y="823.0" type="line"/>
      <point x="1596.0" y="823.0" type="line"/>
    </contour>
  </outline>
</glyph>
<glyph name="J" format="2">
  <advance width="1268.0"/>
  <outline>
    <contour>
      <point x="1015.0" y="486.0" type="line" smooth="yes"/>
      <point x="1015.0" y="206.0"/>
      <point x="762.0" y="-25.0"/>
      <point x="545.0" y="-25.0" type="qcurve" smooth="yes"/>
      <point x="533.0" y="-25.0" type="line" smooth="yes"/>
      <point x="298.0" y="-25.0"/>
      <point x="44.0" y="184.0"/>
      <point x="44.0" y="379.0" type="qcurve" smooth="yes"/>
      <point x="44.0" y="414.0" type="line"/>
      <point x="86.0" y="413.0" type="line"/>
      <point x="86.0" y="372.0" type="line" smooth="yes"/>
      <point x="86.0" y="201.0"/>
      <point x="320.0" y="10.0"/>
      <point x="532.0" y="10.0" type="qcurve" smooth="yes"/>
      <point x="541.0" y="10.0" type="line" smooth="yes"/>
      <point x="741.0" y="10.0"/>
      <point x="975.0" y="240.0"/>
      <point x="975.0" y="459.0" type="qcurve" smooth="yes"/>
      <point x="974.0" y="1500.0" type="line"/>
      <point x="1015.0" y="1500.0" type="line"/>
    </contour>
  </outline>
</glyph>
<glyph name="K" format="2">
  <advance width="1406.0"/>
  <outline>
    <contour>
      <point x="260.0" y="0.0" type="line"/>
      <point x="260.0" y="1500.0" type="line"/>
      <point x="300.0" y="1500.0" type="line"/>
      <point x="300.0" y="603.0" type="line"/>
      <point x="575.0" y="856.0" type="line"/>
      <point x="1264.0" y="1500.0" type="line"/>
      <point x="1338.0" y="1500.0" type="line"/>
      <point x="636.0" y="856.0" type="line"/>
      <point x="621.0" y="840.0" type="line"/>
      <point x="300.0" y="529.0" type="line"/>
      <point x="300.0" y="0.0" type="line"/>
    </contour>
    <contour>
      <point x="533.0" y="869.0" type="line"/>
      <point x="581.0" y="879.0" type="line"/>
      <point x="1426.0" y="0.0" type="line"/>
      <point x="1350.0" y="0.0" type="line"/>
    </contour>
  </outline>
</glyph>
<glyph name="N" format="2">
  <advance width="1907.0"/>
  <outline>
    <contour>
      <point x="260.0" y="0.0" type="line"/>
      <point x="260.0" y="1500.0" type="line"/>
      <point x="305.0" y="1498.0" type="line"/>
      <point x="1602.0" y="25.0" type="line"/>
      <point x="1602.0" y="1500.0" type="line"/>
      <point x="1647.0" y="1500.0" type="line"/>
      <point x="1647.0" y="0.0" type="line"/>
      <point x="1597.0" y="0.0" type="line"/>
      <point x="1582.0" y="17.0" type="line"/>
      <point x="305.0" y="1486.0" type="line"/>
      <point x="305.0" y="0.0" type="line"/>
    </contour>
  </outline>
</glyph>
<glyph name="P" format="2">
  <advance width="1404.0"/>
  <outline>
    <contour>
      <point x="260.0" y="0.0" type="line"/>
      <point x="260.0" y="1500.0" type="line"/>
      <point x="300.0" y="1500.0" type="line"/>
      <point x="300.0" y="0.0" type="line"/>
    </contour>
    <contour>
      <point x="854.0" y="639.0" type="qcurve" smooth="yes"/>
      <point x="276.0" y="639.0" type="line"/>
      <point x="276.0" y="677.0" type="line"/>
      <point x="828.0" y="677.0" type="line" smooth="yes"/>
      <point x="1060.0" y="677.0"/>
      <point x="1307.0" y="858.0"/>
      <point x="1307.0" y="1085.0" type="qcurve" smooth="yes"/>
      <point x="1307.0" y="1096.0" type="line" smooth="yes"/>
      <point x="1307.0" y="1293.0"/>
      <point x="1067.0" y="1462.0"/>
      <point x="885.0" y="1462.0" type="qcurve" smooth="yes"/>
      <point x="276.0" y="1462.0" type="line"/>
      <point x="276.0" y="1500.0" type="line"/>
      <point x="893.0" y="1500.0" type="line" smooth="yes"/>
      <point x="1080.0" y="1500.0"/>
      <point x="1347.0" y="1301.0"/>
      <point x="1347.0" y="1096.0" type="qcurve" smooth="yes"/>
      <point x="1347.0" y="1081.0" type="line" smooth="yes"/>
      <point x="1347.0" y="840.0"/>
      <point x="1082.0" y="638.0"/>
    </contour>
  </outline>
</glyph>
<glyph name="R" format="2">
  <advance width="1484.0"/>
  <outline>
    <contour>
      <point x="260.0" y="0.0" type="line"/>
      <point x="260.0" y="1500.0" type="line"/>
      <point x="300.0" y="1500.0" type="line"/>
      <point x="300.0" y="0.0" type="line"/>
    </contour>
    <contour>
      <point x="854.0" y="685.0" type="qcurve" smooth="yes"/>
      <point x="281.0" y="685.0" type="line"/>
      <point x="281.0" y="735.0" type="line"/>
      <point x="842.0" y="735.0" type="line" smooth="yes"/>
      <point x="1059.0" y="735.0"/>
      <point x="1312.0" y="912.0"/>
      <point x="1312.0" y="1112.0" type="qcurve" smooth="yes"/>
      <point x="1312.0" y="1133.0" type="line" smooth="yes"/>
      <point x="1312.0" y="1304.0"/>
      <point x="1075.0" y="1457.0"/>
      <point x="845.0" y="1457.0" type="qcurve" smooth="yes"/>
      <point x="281.0" y="1457.0" type="line"/>
      <point x="281.0" y="1500.0" type="line"/>
      <point x="851.0" y="1500.0" type="line" smooth="yes"/>
      <point x="1095.0" y="1500.0"/>
      <point x="1353.0" y="1321.0"/>
      <point x="1353.0" y="1122.0" type="qcurve" smooth="yes"/>
      <point x="1353.0" y="1107.0" type="line" smooth="yes"/>
      <point x="1353.0" y="880.0"/>
      <point x="1075.0" y="685.0"/>
    </contour>
    <contour>
      <point x="947.0" y="725.0" type="line"/>
      <point x="1454.0" y="0.0" type="line"/>
      <point x="1404.0" y="0.0" type="line"/>
      <point x="908.0" y="710.0" type="line"/>
    </contour>
  </outline>
</glyph>
<glyph name="S" format="2">
  <advance width="1559.0"/>
  <outline>
    <contour>
      <point x="1442.0" y="405.0" type="line" smooth="yes"/>
      <point x="1442.0" y="553.0"/>
      <point x="1163.0" y="749.0"/>
      <point x="785.0" y="789.0" type="qcurve" smooth="yes"/>
      <point x="399.0" y="824.0"/>
      <point x="117.0" y="990.0"/>
      <point x="117.0" y="1147.0" type="qcurve" smooth="yes"/>
      <point x="117.0" y="1172.0" type="line" smooth="yes"/>
      <point x="117.0" y="1320.0"/>
      <point x="422.0" y="1524.0"/>
      <point x="763.0" y="1524.0" type="qcurve" smooth="yes"/>
      <point x="774.0" y="1524.0" type="line" smooth="yes"/>
      <point x="1138.0" y="1524.0"/>
      <point x="1433.0" y="1313.0"/>
      <point x="1425.0" y="1119.0" type="qcurve" smooth="yes"/>
      <point x="1425.0" y="1095.0" type="line"/>
      <point x="1382.0" y="1096.0" type="line"/>
      <point x="1382.0" y="1119.0" type="line" smooth="yes"/>
      <point x="1382.0" y="1293.0"/>
      <point x="1121.0" y="1478.0"/>
      <point x="775.0" y="1478.0" type="qcurve" smooth="yes"/>
      <point x="760.0" y="1478.0" type="line" smooth="yes"/>
      <point x="449.0" y="1478.0"/>
      <point x="159.0" y="1302.0"/>
      <point x="159.0" y="1178.0" type="qcurve" smooth="yes"/>
      <point x="159.0" y="1141.0" type="line" smooth="yes"/>
      <point x="159.0" y="1032.0"/>
      <point x="403.0" y="862.0"/>
      <point x="799.0" y="827.0" type="qcurve" smooth="yes"/>
      <point x="1206.0" y="794.0"/>
      <point x="1482.0" y="577.0"/>
      <point x="1482.0" y="408.0" type="qcurve" smooth="yes"/>
      <point x="1482.0" y="384.0" type="line" smooth="yes"/>
      <point x="1482.0" y="199.0"/>
      <point x="1137.0" y="-25.0"/>
      <point x="782.0" y="-25.0" type="qcurve" smooth="yes"/>
      <point x="778.0" y="-25.0" type="line" smooth="yes"/>
      <point x="393.0" y="-25.0"/>
      <point x="77.0" y="221.0"/>
      <point x="77.0" y="396.0" type="qcurve" smooth="yes"/>
      <point x="77.0" y="451.0" type="line"/>
      <point x="117.0" y="451.0" type="line"/>
      <point x="117.0" y="392.0" type="line" smooth="yes"/>
      <point x="117.0" y="241.0"/>
      <point x="407.0" y="14.0"/>
      <point x="778.0" y="14.0" type="qcurve" smooth="yes"/>
      <point x="787.0" y="14.0" type="line" smooth="yes"/>
      <point x="1148.0" y="14.0"/>
      <point x="1442.0" y="253.0"/>
      <point x="1442.0" y="385.0" type="qcurve" smooth="yes"/>
    </contour>
  </outline>
</glyph>
<glyph name="T" format="2">
  <advance width="1444.0"/>
  <outline>
    <contour>
      <point x="710.0" y="0.0" type="line"/>
      <point x="710.0" y="1480.0" type="line"/>
      <point x="750.0" y="1480.0" type="line"/>
      <point x="750.0" y="0.0" type="line"/>
    </contour>
    <contour>
      <point x="1430.0" y="1455.0" type="line"/>
      <point x="14.0" y="1455.0" type="line"/>
      <point x="14.0" y="1500.0" type="line"/>
      <point x="1430.0" y="1500.0" type="line"/>
    </contour>
  </outline>
</glyph>
<glyph name="V" format="2">
  <advance width="1550.0"/>
  <outline>
    <contour>
      <point x="725.0" y="0.0" type="line"/>
      <point x="10.0" y="1500.0" type="line"/>
      <point x="63.0" y="1500.0" type="line"/>
      <point x="774.0" y="1.0" type="line"/>
      <point x="1489.0" y="1500.0" type="line"/>
      <point x="1540.0" y="1500.0" type="line"/>
      <point x="811.0" y="0.0" type="line"/>
    </contour>
  </outline>
</glyph>
<glyph name="Z" format="2">
  <advance width="1379.0"/>
  <outline>
    <contour>
      <point x="1354.0" y="0.0" type="line"/>
      <point x="34.0" y="0.0" type="line"/>
      <point x="29.0" y="48.0" type="line"/>
      <point x="1264.0" y="1457.0" type="line"/>
      <point x="64.0" y="1457.0" type="line"/>
      <point x="64.0" y="1500.0" type="line"/>
      <point x="1334.0" y="1500.0" type="line"/>
      <point x="1334.0" y="1462.0" type="line"/>
      <point x="90.0" y="43.0" type="line"/>
      <point x="1354.0" y="43.0" type="line"/>
    </contour>
  </outline>
</glyph>
<glyph name="a" format="2">
  <advance width="1430.0"/>
  <outline>
    <contour>
      <point x="172.0" y="924.0" type="line"/>
      <point x="216.0" y="950.0"/>
      <point x="512.0" y="1040.0"/>
      <point x="711.0" y="1040.0" type="qcurve" smooth="yes"/>
      <point x="965.0" y="1040.0"/>
      <point x="1217.0" y="834.0"/>
      <point x="1219.0" y="621.0" type="qcurve" smooth="yes"/>
      <point x="1220.0" y="0.0" type="line"/>
      <point x="1178.0" y="0.0" type="line"/>
      <point x="1178.0" y="641.0" type="line" smooth="yes"/>
      <point x="1178.0" y="819.0"/>
      <point x="942.0" y="1011.0"/>
      <point x="712.0" y="1011.0" type="qcurve" smooth="yes"/>
      <point x="515.0" y="1011.0"/>
      <point x="238.0" y="925.0"/>
      <point x="181.0" y="878.0" type="qcurve"/>
    </contour>
    <contour>
      <point x="1199.0" y="171.0" type="line"/>
      <point x="1144.0" y="99.0"/>
      <point x="823.0" y="-23.0"/>
      <point x="625.0" y="-23.0" type="qcurve" smooth="yes"/>
      <point x="371.0" y="-23.0"/>
      <point x="88.0" y="157.0"/>
      <point x="88.0" y="305.0" type="qcurve" smooth="yes"/>
      <point x="88.0" y="450.0"/>
      <point x="373.0" y="634.0"/>
      <point x="669.0" y="634.0" type="qcurve" smooth="yes"/>
      <point x="852.0" y="634.0"/>
      <point x="1136.0" y="601.0"/>
      <point x="1201.0" y="582.0" type="qcurve"/>
      <point x="1201.0" y="527.0" type="line"/>
      <point x="1138.0" y="554.0"/>
      <point x="774.0" y="602.0"/>
      <point x="671.0" y="602.0" type="qcurve" smooth="yes"/>
      <point x="443.0" y="602.0"/>
      <point x="131.0" y="452.0"/>
      <point x="131.0" y="303.0" type="qcurve" smooth="yes"/>
      <point x="131.0" y="157.0"/>
      <point x="395.0" y="0.0"/>
      <point x="641.0" y="0.0" type="qcurve" smooth="yes"/>
      <point x="817.0" y="0.0"/>
      <point x="1131.0" y="131.0"/>
      <point x="1199.0" y="217.0" type="qcurve"/>
    </contour>
  </outline>
</glyph>
<glyph name="ampersand" format="2">
  <advance width="1534.0"/>
  <outline>
    <contour>
      <point x="959.0" y="711.0" type="line"/>
      <point x="1544.0" y="889.0" type="line"/>
      <point x="1540.0" y="847.0" type="line"/>
      <point x="957.0" y="668.0" type="line"/>
    </contour>
    <contour>
      <point x="754.0" y="777.0" type="line"/>
      <point x="546.0" y="777.0" type="line" smooth="yes"/>
      <point x="342.0" y="777.0"/>
      <point x="86.0" y="602.0"/>
      <point x="86.0" y="437.0" type="qcurve" smooth="yes"/>
      <point x="86.0" y="436.0" type="line" smooth="yes"/>
      <point x="86.0" y="253.0"/>
      <point x="368.0" y="24.0"/>
      <point x="684.0" y="24.0" type="qcurve" smooth="yes"/>
      <point x="695.0" y="24.0" type="line" smooth="yes"/>
      <point x="1018.0" y="24.0"/>
      <point x="1353.0" y="291.0"/>
      <point x="1353.0" y="499.0" type="qcurve" smooth="yes"/>
      <point x="1353.0" y="504.0" type="line" smooth="yes"/>
      <point x="1353.0" y="585.0"/>
      <point x="1297.0" y="730.0"/>
      <point x="1274.0" y="769.0" type="qcurve"/>
      <point x="1307.0" y="781.0" type="line"/>
      <point x="1335.0" y="743.0"/>
      <point x="1393.0" y="584.0"/>
      <point x="1393.0" y="513.0" type="qcurve" smooth="yes"/>
      <point x="1393.0" y="491.0" type="line" smooth="yes"/>
      <point x="1393.0" y="286.0"/>
      <point x="1042.0" y="-25.0"/>
      <point x="683.0" y="-25.0" type="qcurve" smooth="yes"/>
      <point x="663.0" y="-25.0" type="line" smooth="yes"/>
      <point x="362.0" y="-25.0"/>
      <point x="46.0" y="222.0"/>
      <point x="46.0" y="405.0" type="qcurve" smooth="yes"/>
      <point x="46.0" y="424.0" type="line" smooth="yes"/>
      <point x="46.0" y="606.0"/>
      <point x="256.0" y="775.0"/>
      <point x="425.0" y="795.0" type="qcurve"/>
      <point x="316.0" y="816.0"/>
      <point x="183.0" y="974.0"/>
      <point x="183.0" y="1112.0" type="qcurve" smooth="yes"/>
      <point x="183.0" y="1138.0" type="line" smooth="yes"/>
      <point x="183.0" y="1305.0"/>
      <point x="421.0" y="1523.0"/>
      <point x="587.0" y="1523.0" type="qcurve" smooth="yes"/>
      <point x="593.0" y="1523.0" type="line" smooth="yes"/>
      <point x="773.0" y="1523.0"/>
      <point x="997.0" y="1326.0"/>
      <point x="1006.0" y="1149.0" type="qcurve" smooth="yes"/>
      <point x="1006.0" y="1123.0" type="line"/>
      <point x="953.0" y="1125.0" type="line"/>
      <point x="953.0" y="1148.0" type="line" smooth="yes"/>
      <point x="953.0" y="1301.0"/>
      <point x="764.0" y="1488.0"/>
      <point x="589.0" y="1488.0" type="qcurve" smooth="yes"/>
      <point x="584.0" y="1488.0" type="line" smooth="yes"/>
      <point x="422.0" y="1488.0"/>
      <point x="223.0" y="1286.0"/>
      <point x="223.0" y="1128.0" type="qcurve" smooth="yes"/>
      <point x="223.0" y="1119.0" type="line" smooth="yes"/>
      <point x="223.0" y="965.0"/>
      <point x="390.0" y="817.0"/>
      <point x="532.0" y="817.0" type="qcurve" smooth="yes"/>
      <point x="761.0" y="818.0" type="line"/>
    </contour>
  </outline>
</glyph>
<glyph name="asciitilde" format="2">
  <advance width="1920.0"/>
  <outline>
    <contour>
      <point x="1001.0" y="805.0" type="qcurve" smooth="yes"/>
      <point x="923.0" y="843.0"/>
      <point x="787.0" y="912.0"/>
      <point x="667.0" y="912.0" type="qcurve" smooth="yes"/>
      <point x="526.0" y="912.0"/>
      <point x="328.0" y="815.0"/>
      <point x="290.0" y="765.0" type="qcurve"/>
      <point x="343.0" y="753.0" type="line"/>
      <point x="371.0" y="785.0"/>
      <point x="539.0" y="868.0"/>
      <point x="634.0" y="868.0" type="qcurve"/>
      <point x="729.0" y="868.0"/>
      <point x="837.0" y="832.0"/>
      <point x="900.0" y="796.0" type="qcurve" smooth="yes"/>
      <point x="968.0" y="763.0"/>
      <point x="1139.0" y="686.0"/>
      <point x="1264.0" y="686.0" type="qcurve" smooth="yes"/>
      <point x="1411.0" y="686.0"/>
      <point x="1605.0" y="792.0"/>
      <point x="1632.0" y="831.0" type="qcurve"/>
      <point x="1576.0" y="846.0" type="line"/>
      <point x="1548.0" y="811.0"/>
      <point x="1390.0" y="723.0"/>
      <point x="1286.0" y="723.0" type="qcurve" smooth="yes"/>
      <point x="1194.0" y="723.0"/>
      <point x="1073.0" y="765.0"/>
    </contour>
  </outline>
</glyph>
<glyph name="asterisk" format="2">
  <advance width="1337.0"/>
  <outline>
    <contour>
      <point x="720.0" y="1041.0" type="line"/>
      <point x="346.0" y="573.0" type="line"/>
      <point x="317.0" y="597.0" type="line"/>
      <point x="691.0" y="1063.0" type="line"/>
      <point x="144.0" y="1227.0" type="line"/>
      <point x="163.0" y="1264.0" type="line"/>
      <point x="702.0" y="1106.0" type="line"/>
      <point x="698.0" y="1644.0" type="line"/>
      <point x="742.0" y="1644.0" type="line"/>
      <point x="737.0" y="1106.0" type="line"/>
      <point x="1244.0" y="1264.0" type="line"/>
      <point x="1258.0" y="1225.0" type="line"/>
      <point x="746.0" y="1066.0" type="line"/>
      <point x="1128.0" y="605.0" type="line"/>
      <point x="1093.0" y="582.0" type="line"/>
    </contour>
  </outline>
</glyph>
<glyph name="backslash" format="2">
  <advance width="960.0"/>
  <outline>
    <contour>
      <point x="1030.0" y="0.0" type="line"/>
      <point x="966.0" y="0.0" type="line"/>
      <point x="-54.0" y="1500.0" type="line"/>
      <point x="10.0" y="1500.0" type="line"/>
    </contour>
  </outline>
</glyph>
<glyph name="bar" format="2">
  <advance width="984.0"/>
  <outline>
    <contour>
      <point x="472.0" y="-500.0" type="line"/>
      <point x="472.0" y="1500.0" type="line"/>
      <point x="512.0" y="1500.0" type="line"/>
      <point x="512.0" y="-500.0" type="line"/>
    </contour>
  </outline>
</glyph>
<glyph name="braceright" format="2">
  <advance width="984.0"/>
  <outline>
    <contour>
      <point x="860.0" y="581.0" type="qcurve"/>
      <point x="860.0" y="621.0" type="line"/>
      <point x="638.0" y="621.0"/>
      <point x="518.0" y="700.0"/>
      <point x="518.0" y="763.0" type="qcurve" smooth="yes"/>
      <point x="518.0" y="807.0"/>
      <point x="564.0" y="907.0"/>
      <point x="595.0" y="949.0" type="qcurve" smooth="yes"/>
      <point x="627.0" y="993.0"/>
      <point x="698.0" y="1127.0"/>
      <point x="698.0" y="1195.0" type="qcurve" smooth="yes"/>
      <point x="698.0" y="1330.0"/>
      <point x="348.0" y="1517.0"/>
      <point x="62.0" y="1526.0" type="qcurve"/>
      <point x="173.0" y="1413.0" type="line"/>
      <point x="421.0" y="1418.0"/>
      <point x="646.0" y="1261.0"/>
      <point x="646.0" y="1210.0" type="qcurve" smooth="yes"/>
      <point x="646.0" y="1129.0"/>
      <point x="596.0" y="1021.0"/>
      <point x="567.0" y="979.0" type="qcurve" smooth="yes"/>
      <point x="534.0" y="930.0"/>
      <point x="456.0" y="816.0"/>
      <point x="456.0" y="732.0" type="qcurve" smooth="yes"/>
      <point x="456.0" y="706.0"/>
      <point x="521.0" y="624.0"/>
      <point x="565.0" y="599.0" type="qcurve"/>
      <point x="522.0" y="578.0"/>
      <point x="456.0" y="514.0"/>
      <point x="456.0" y="498.0" type="qcurve" smooth="yes"/>
      <point x="456.0" y="404.0"/>
      <point x="539.0" y="288.0"/>
      <point x="574.0" y="240.0" type="qcurve" smooth="yes"/>
      <point x="607.0" y="192.0"/>
      <point x="647.0" y="91.0"/>
      <point x="647.0" y="-4.0" type="qcurve" smooth="yes"/>
      <point x="647.0" y="-56.0"/>
      <point x="432.0" y="-226.0"/>
      <point x="169.0" y="-210.0" type="qcurve"/>
      <point x="62.0" y="-305.0" type="line"/>
      <point x="357.0" y="-324.0"/>
      <point x="697.0" y="-122.0"/>
      <point x="697.0" y="19.0" type="qcurve" smooth="yes"/>
      <point x="697.0" y="105.0"/>
      <point x="635.0" y="227.0"/>
      <point x="599.0" y="277.0" type="qcurve" smooth="yes"/>
      <point x="568.0" y="319.0"/>
      <point x="518.0" y="423.0"/>
      <point x="518.0" y="454.0" type="qcurve" smooth="yes"/>
      <point x="518.0" y="513.0"/>
      <point x="615.0" y="580.0"/>
    </contour>
  </outline>
</glyph>
<glyph name="bracketright" format="2">
  <advance width="984.0"/>
  <outline>
    <contour>
      <point x="670.0" y="-280.0" type="line"/>
      <point x="630.0" y="-280.0" type="line"/>
      <point x="630.0" y="1500.0" type="line"/>
      <point x="670.0" y="1500.0" type="line"/>
    </contour>
    <contour>
      <point x="88.0" y="-280.0" type="line"/>
      <point x="88.0" y="-242.0" type="line"/>
      <point x="645.0" y="-242.0" type="line"/>
      <point x="645.0" y="-280.0" type="line"/>
    </contour>
    <contour>
      <point x="88.0" y="1462.0" type="line"/>
      <point x="88.0" y="1500.0" type="line"/>
      <point x="650.0" y="1500.0" type="line"/>
      <point x="650.0" y="1462.0" type="line"/>
    </contour>
  </outline>
</glyph>
<glyph name="e" format="2">
  <advance width="1475.0"/>
  <outline>
    <contour>
      <point x="1399.0" y="329.0" type="line"/>
      <point x="1395.0" y="305.0" type="line" smooth="yes"/>
      <point x="1371.0" y="171.0"/>
      <point x="1059.0" y="-25.0"/>
      <point x="773.0" y="-25.0" type="qcurve" smooth="yes"/>
      <point x="763.0" y="-25.0" type="line" smooth="yes"/>
      <point x="470.0" y="-25.0"/>
      <point x="96.0" y="248.0"/>
      <point x="96.0" y="492.0" type="qcurve" smooth="yes"/>
      <point x="96.0" y="512.0" type="line" smooth="yes"/>
      <point x="96.0" y="745.0"/>
      <point x="472.0" y="1040.0"/>
      <point x="748.0" y="1040.0" type="qcurve" smooth="yes"/>
      <point x="769.0" y="1040.0" type="line" smooth="yes"/>
      <point x="1082.0" y="1040.0"/>
      <point x="1372.0" y="801.0"/>
      <point x="1385.0" y="594.0" type="qcurve" smooth="yes"/>
      <point x="1392.0" y="525.0" type="line"/>
      <point x="122.0" y="525.0" type="line"/>
      <point x="122.0" y="562.0" type="line"/>
      <point x="1339.0" y="562.0" type="line"/>
      <point x="1336.0" y="600.0" type="line" smooth="yes"/>
      <point x="1327.0" y="780.0"/>
      <point x="1041.0" y="1001.0"/>
      <point x="760.0" y="1001.0" type="qcurve" smooth="yes"/>
      <point x="762.0" y="1001.0" type="line" smooth="yes"/>
      <point x="480.0" y="1001.0"/>
      <point x="142.0" y="732.0"/>
      <point x="142.0" y="509.0" type="qcurve" smooth="yes"/>
      <point x="142.0" y="490.0" type="line" smooth="yes"/>
      <point x="142.0" y="259.0"/>
      <point x="483.0" y="11.0"/>
      <point x="755.0" y="11.0" type="qcurve" smooth="yes"/>
      <point x="776.0" y="11.0" type="line" smooth="yes"/>
      <point x="1019.0" y="11.0"/>
      <point x="1313.0" y="185.0"/>
      <point x="1346.0" y="310.0" type="qcurve" smooth="yes"/>
      <point x="1352.0" y="332.0" type="line"/>
    </contour>
  </outline>
</glyph>
<glyph name="eight" format="2">
  <advance width="1471.0"/>
  <outline>
    <contour>
      <point x="725.0" y="-25.0" type="line" smooth="yes"/>
      <point x="441.0" y="-25.0"/>
      <point x="55.0" y="222.0"/>
      <point x="55.0" y="407.0" type="qcurve" smooth="yes"/>
      <point x="55.0" y="419.0" type="line" smooth="yes"/>
      <point x="55.0" y="598.0"/>
      <point x="436.0" y="821.0"/>
      <point x="719.0" y="821.0" type="qcurve" smooth="yes"/>
      <point x="729.0" y="821.0" type="line" smooth="yes"/>
      <point x="1020.0" y="821.0"/>
      <point x="1416.0" y="598.0"/>
      <point x="1416.0" y="419.0" type="qcurve" smooth="yes"/>
      <point x="1416.0" y="407.0" type="line" smooth="yes"/>
      <point x="1416.0" y="222.0"/>
      <point x="1016.0" y="-25.0"/>
      <point x="734.0" y="-25.0" type="qcurve" smooth="yes"/>
    </contour>
    <contour>
      <point x="736.0" y="4.0" type="line" smooth="yes"/>
      <point x="1021.0" y="4.0"/>
      <point x="1380.0" y="220.0"/>
      <point x="1380.0" y="392.0" type="qcurve" smooth="yes"/>
      <point x="1380.0" y="417.0" type="line" smooth="yes"/>
      <point x="1380.0" y="588.0"/>
      <point x="1032.0" y="785.0"/>
      <point x="729.0" y="785.0" type="qcurve" smooth="yes"/>
      <point x="714.0" y="785.0" type="line" smooth="yes"/>
      <point x="429.0" y="785.0"/>
      <point x="94.0" y="588.0"/>
      <point x="94.0" y="417.0" type="qcurve" smooth="yes"/>
      <point x="94.0" y="392.0" type="line" smooth="yes"/>
      <point x="94.0" y="220.0"/>
      <point x="442.0" y="4.0"/>
      <point x="721.0" y="4.0" type="qcurve" smooth="yes"/>
    </contour>
    <contour>
      <point x="724.0" y="785.0" type="line" smooth="yes"/>
      <point x="471.0" y="785.0"/>
      <point x="130.0" y="986.0"/>
      <point x="130.0" y="1141.0" type="qcurve" smooth="yes"/>
      <point x="130.0" y="1164.0" type="line" smooth="yes"/>
      <point x="130.0" y="1320.0"/>
      <point x="478.0" y="1523.0"/>
      <point x="719.0" y="1523.0" type="qcurve" smooth="yes"/>
      <point x="728.0" y="1523.0" type="line" smooth="yes"/>
      <point x="977.0" y="1523.0"/>
      <point x="1338.0" y="1320.0"/>
      <point x="1338.0" y="1164.0" type="qcurve" smooth="yes"/>
      <point x="1338.0" y="1141.0" type="line" smooth="yes"/>
      <point x="1338.0" y="986.0"/>
      <point x="991.0" y="785.0"/>
      <point x="733.0" y="785.0" type="qcurve" smooth="yes"/>
    </contour>
    <contour>
      <point x="725.0" y="821.0" type="line" smooth="yes"/>
      <point x="986.0" y="821.0"/>
      <point x="1292.0" y="996.0"/>
      <point x="1292.0" y="1141.0" type="qcurve" smooth="yes"/>
      <point x="1292.0" y="1163.0" type="line" smooth="yes"/>
      <point x="1292.0" y="1307.0"/>
      <point x="993.0" y="1484.0"/>
      <point x="725.0" y="1484.0" type="qcurve" smooth="yes"/>
      <point x="717.0" y="1484.0" type="line" smooth="yes"/>
      <point x="470.0" y="1484.0"/>
      <point x="178.0" y="1307.0"/>
      <point x="178.0" y="1163.0" type="qcurve" smooth="yes"/>
      <point x="178.0" y="1141.0" type="line" smooth="yes"/>
      <point x="178.0" y="996.0"/>
      <point x="465.0" y="821.0"/>
      <point x="717.0" y="821.0" type="qcurve" smooth="yes"/>
    </contour>
  </outline>
</glyph>
<glyph name="four" format="2">
  <advance width="1380.0"/>
  <outline>
    <contour>
      <point x="986.0" y="0.0" type="line"/>
      <point x="986.0" y="1510.0" type="line"/>
      <point x="1026.0" y="1507.0" type="line"/>
      <point x="1026.0" y="2.0" type="line"/>
    </contour>
    <contour>
      <point x="1363.0" y="535.0" type="line"/>
      <point x="1363.0" y="498.0" type="line"/>
      <point x="44.0" y="498.0" type="line"/>
      <point x="28.0" y="520.0" type="line"/>
      <point x="946.0" y="1485.0" type="line"/>
      <point x="986.0" y="1459.0" type="line"/>
      <point x="117.0" y="537.0" type="line"/>
    </contour>
  </outline>
</glyph>
<glyph name="j" format="2">
  <advance width="551.0"/>
  <outline>
    <contour>
      <point x="349.0" y="-39.0" type="line" smooth="yes"/>
      <point x="349.0" y="-261.0"/>
      <point x="109.0" y="-500.0"/>
      <point x="-150.0" y="-500.0" type="qcurve" smooth="yes"/>
      <point x="-195.0" y="-500.0"/>
      <point x="-277.0" y="-490.0"/>
      <point x="-306.0" y="-482.0" type="qcurve"/>
      <point x="-316.0" y="-439.0" type="line"/>
      <point x="-287.0" y="-445.0"/>
      <point x="-181.0" y="-462.0"/>
      <point x="-144.0" y="-462.0" type="qcurve" smooth="yes"/>
      <point x="74.0" y="-462.0"/>
      <point x="309.0" y="-239.0"/>
      <point x="309.0" y="24.0" type="qcurve" smooth="yes"/>
      <point x="309.0" y="1000.0" type="line"/>
      <point x="349.0" y="1000.0" type="line"/>
    </contour>
    <contour>
      <point x="324.0" y="1344.0" type="line" smooth="yes"/>
      <point x="348.0" y="1344.0"/>
      <point x="374.0" y="1371.0"/>
      <point x="374.0" y="1393.0" type="qcurve" smooth="yes"/>
      <point x="374.0" y="1396.0" type="line" smooth="yes"/>
      <point x="374.0" y="1419.0"/>
      <point x="348.0" y="1446.0"/>
      <point x="324.0" y="1446.0" type="qcurve" smooth="yes"/>
      <point x="323.0" y="1446.0" type="line" smooth="yes"/>
      <point x="301.0" y="1446.0"/>
      <point x="276.0" y="1419.0"/>
      <point x="276.0" y="1396.0" type="qcurve" smooth="yes"/>
      <point x="276.0" y="1393.0" type="line" smooth="yes"/>
      <point x="276.0" y="1371.0"/>
      <point x="301.0" y="1344.0"/>
      <point x="323.0" y="1344.0" type="qcurve" smooth="yes"/>
    </contour>
    <contour>
      <point x="376.0" y="965.0" type="line"/>
      <point x="56.0" y="945.0" type="line"/>
      <point x="56.0" y="980.0" type="line"/>
      <point x="376.0" y="1000.0" type="line"/>
    </contour>
  </outline>
</glyph>
<glyph name="l" format="2">
  <advance width="515.0"/>
  <outline>
    <contour>
      <point x="224.0" y="10.0" type="qcurve" smooth="yes"/>
      <point x="224.0" y="1500.0" type="line"/>
      <point x="264.0" y="1500.0" type="line"/>
      <point x="284.0" y="0.0" type="line"/>
      <point x="212.0" y="-4.0"/>
      <point x="224.0" y="-14.0"/>
    </contour>
    <contour>
      <point x="522.0" y="51.0" type="line"/>
      <point x="284.0" y="0.0" type="line"/>
      <point x="201.0" y="55.0" type="line"/>
      <point x="519.0" y="80.0" type="line"/>
    </contour>
  </outline>
</glyph>
<glyph name="less" format="2">
  <advance width="1920.0"/>
  <outline>
    <contour>
      <point x="318.0" y="722.0" type="line"/>
      <point x="318.0" y="742.0" type="line"/>
      <point x="1568.0" y="1216.0" type="line"/>
      <point x="1568.0" y="1172.0" type="line"/>
      <point x="435.0" y="745.0" type="line"/>
      <point x="1568.0" y="343.0" type="line"/>
      <point x="1568.0" y="300.0" type="line"/>
    </contour>
  </outline>
</glyph>
<glyph name="m" format="2">
  <advance width="2278.0"/>
  <outline>
    <contour>
      <point x="220.0" y="0.0" type="line"/>
      <point x="220.0" y="1000.0" type="line"/>
      <point x="260.0" y="1000.0" type="line"/>
      <point x="260.0" y="0.0" type="line"/>
    </contour>
    <contour>
      <point x="251.0" y="834.0" type="line"/>
      <point x="323.0" y="913.0"/>
      <point x="632.0" y="1040.0"/>
      <point x="788.0" y="1040.0" type="qcurve" smooth="yes"/>
      <point x="961.0" y="1040.0"/>
      <point x="1172.0" y="826.0"/>
      <point x="1173.0" y="631.0" type="qcurve" smooth="yes"/>
      <point x="1173.0" y="0.0" type="line"/>
      <point x="1133.0" y="0.0" type="line"/>
      <point x="1133.0" y="645.0" type="line" smooth="yes"/>
      <point x="1133.0" y="832.0"/>
      <point x="924.0" y="1003.0"/>
      <point x="771.0" y="1003.0" type="qcurve" smooth="yes"/>
      <point x="631.0" y="1003.0"/>
      <point x="334.0" y="886.0"/>
      <point x="255.0" y="799.0" type="qcurve"/>
    </contour>
    <contour>
      <point x="1129.0" y="838.0" type="line"/>
      <point x="1203.0" y="925.0"/>
      <point x="1504.0" y="1040.0"/>
      <point x="1667.0" y="1040.0" type="qcurve" smooth="yes"/>
      <point x="1829.0" y="1040.0"/>
      <point x="2078.0" y="817.0"/>
      <point x="2079.0" y="622.0" type="qcurve" smooth="yes"/>
      <point x="2079.0" y="0.0" type="line"/>
      <point x="2039.0" y="0.0" type="line"/>
      <point x="2039.0" y="642.0" type="line" smooth="yes"/>
      <point x="2039.0" y="830.0"/>
      <point x="1795.0" y="1002.0"/>
      <point x="1652.0" y="1002.0" type="qcurve" smooth="yes"/>
      <point x="1512.0" y="1002.0"/>
      <point x="1222.0" y="903.0"/>
      <point x="1138.0" y="811.0" type="qcurve"/>
    </contour>
  </outline>
</glyph>
<glyph name="p" format="2">
  <advance width="1601.0"/>
  <outline>
    <contour>
      <point x="220.0" y="-500.0" type="line"/>
      <point x="220.0" y="1000.0" type="line"/>
      <point x="260.0" y="1000.0" type="line"/>
      <point x="260.0" y="-500.0" type="line"/>
    </contour>
    <contour>
      <point x="235.0" y="519.0" type="line" smooth="yes"/>
      <point x="235.0" y="799.0"/>
      <point x="579.0" y="1040.0"/>
      <point x="870.0" y="1040.0" type="qcurve" smooth="yes"/>
      <point x="881.0" y="1040.0" type="line" smooth="yes"/>
      <point x="1186.0" y="1040.0"/>
      <point x="1527.0" y="745.0"/>
      <point x="1527.0" y="509.0" type="qcurve" smooth="yes"/>
      <point x="1527.0" y="494.0" type="line" smooth="yes"/>
      <point x="1527.0" y="258.0"/>
      <point x="1180.0" y="-25.0"/>
      <point x="879.0" y="-25.0" type="qcurve" smooth="yes"/>
      <point x="868.0" y="-25.0" type="line" smooth="yes"/>
      <point x="578.0" y="-25.0"/>
      <point x="235.0" y="188.0"/>
      <point x="235.0" y="484.0" type="qcurve" smooth="yes"/>
    </contour>
    <contour>
      <point x="281.0" y="520.0" type="qcurve" smooth="yes"/>
      <point x="281.0" y="485.0" type="line" smooth="yes"/>
      <point x="281.0" y="231.0"/>
      <point x="629.0" y="11.0"/>
      <point x="880.0" y="11.0" type="qcurve" smooth="yes"/>
      <point x="893.0" y="11.0" type="line" smooth="yes"/>
      <point x="1153.0" y="11.0"/>
      <point x="1487.0" y="273.0"/>
      <point x="1487.0" y="495.0" type="qcurve" smooth="yes"/>
      <point x="1487.0" y="510.0" type="line" smooth="yes"/>
      <point x="1487.0" y="732.0"/>
      <point x="1157.0" y="1004.0"/>
      <point x="897.0" y="1004.0" type="qcurve" smooth="yes"/>
      <point x="884.0" y="1004.0" type="line" smooth="yes"/>
      <point x="633.0" y="1004.0"/>
      <point x="281.0" y="748.0"/>
    </contour>
  </outline>
</glyph>
<glyph name="parenleft" format="2">
  <advance width="984.0"/>
  <outline>
    <contour>
      <point x="874.0" y="-311.0" type="line"/>
      <point x="172.0" y="49.0"/>
      <point x="172.0" y="1144.0"/>
      <point x="869.0" y="1525.0" type="qcurve"/>
      <point x="870.0" y="1443.0" type="line"/>
      <point x="185.0" y="1052.0"/>
      <point x="218.0" y="137.0"/>
      <point x="878.0" y="-230.0" type="qcurve"/>
    </contour>
  </outline>
</glyph>
<glyph name="period" format="2">
  <advance width="847.0"/>
  <outline>
    <contour>
      <point x="424.0" y="-4.0" type="line" smooth="yes"/>
      <point x="443.0" y="-4.0"/>
      <point x="468.0" y="41.0"/>
      <point x="468.0" y="92.0" type="qcurve" smooth="yes"/>
      <point x="468.0" y="118.0" type="line" smooth="yes"/>
      <point x="468.0" y="173.0"/>
      <point x="445.0" y="215.0"/>
      <point x="424.0" y="215.0" type="qcurve" smooth="yes"/>
      <point x="423.0" y="215.0" type="line" smooth="yes"/>
      <point x="404.0" y="215.0"/>
      <point x="379.0" y="173.0"/>
      <point x="379.0" y="118.0" type="qcurve" smooth="yes"/>
      <point x="379.0" y="92.0" type="line" smooth="yes"/>
      <point x="379.0" y="37.0"/>
      <point x="403.0" y="-4.0"/>
      <point x="423.0" y="-4.0" type="qcurve" smooth="yes"/>
    </contour>
  </outline>
</glyph>
<glyph name="plus" format="2">
  <advance width="1920.0"/>
  <outline>
    <contour>
      <point x="1640.0" y="740.0" type="line"/>
      <point x="280.0" y="740.0" type="line"/>
      <point x="280.0" y="785.0" type="line"/>
      <point x="1640.0" y="785.0" type="line"/>
    </contour>
    <contour>
      <point x="982.0" y="1392.0" type="line"/>
      <point x="982.0" y="132.0" type="line"/>
      <point x="937.0" y="132.0" type="line"/>
      <point x="937.0" y="1392.0" type="line"/>
    </contour>
  </outline>
</glyph>
<glyph name="r" format="2">
  <advance width="1013.0"/>
  <outline>
    <contour>
      <point x="220.0" y="0.0" type="line"/>
      <point x="220.0" y="1000.0" type="line"/>
      <point x="260.0" y="1000.0" type="line"/>
      <point x="260.0" y="0.0" type="line"/>
    </contour>
    <contour>
      <point x="230.0" y="803.0" type="line"/>
      <point x="317.0" y="908.0"/>
      <point x="692.0" y="1040.0"/>
      <point x="907.0" y="1040.0" type="qcurve" smooth="yes"/>
      <point x="926.0" y="1040.0"/>
      <point x="965.0" y="1039.0"/>
      <point x="983.0" y="1038.0" type="qcurve"/>
      <point x="983.0" y="990.0" type="line"/>
      <point x="966.0" y="991.0"/>
      <point x="928.0" y="993.0"/>
      <point x="907.0" y="993.0" type="qcurve" smooth="yes"/>
      <point x="691.0" y="993.0"/>
      <point x="357.0" y="889.0"/>
      <point x="263.0" y="789.0" type="qcurve"/>
    </contour>
  </outline>
</glyph>
<glyph name="s" format="2">
  <advance width="1387.0"/>
  <outline>
    <contour>
      <point x="1276.0" y="311.0" type="line" smooth="yes"/>
      <point x="1276.0" y="412.0"/>
      <point x="1067.0" y="501.0"/>
      <point x="690.0" y="525.0" type="qcurve" smooth="yes"/>
      <point x="299.0" y="547.0"/>
      <point x="92.0" y="657.0"/>
      <point x="92.0" y="765.0" type="qcurve" smooth="yes"/>
      <point x="92.0" y="776.0" type="line" smooth="yes"/>
      <point x="92.0" y="902.0"/>
      <point x="384.0" y="1040.0"/>
      <point x="672.0" y="1040.0" type="qcurve" smooth="yes"/>
      <point x="686.0" y="1040.0" type="line" smooth="yes"/>
      <point x="960.0" y="1040.0"/>
      <point x="1242.0" y="893.0"/>
      <point x="1254.0" y="755.0" type="qcurve" smooth="yes"/>
      <point x="1257.0" y="708.0" type="line"/>
      <point x="1184.0" y="708.0" type="line"/>
      <point x="1182.0" y="731.0" type="line" smooth="yes"/>
      <point x="1178.0" y="862.0"/>
      <point x="904.0" y="1005.0"/>
      <point x="681.0" y="1005.0" type="qcurve" smooth="yes"/>
      <point x="669.0" y="1005.0" type="line" smooth="yes"/>
      <point x="411.0" y="1005.0"/>
      <point x="148.0" y="868.0"/>
      <point x="148.0" y="768.0" type="qcurve" smooth="yes"/>
      <point x="148.0" y="760.0" type="line" smooth="yes"/>
      <point x="148.0" y="669.0"/>
      <point x="349.0" y="575.0"/>
      <point x="722.0" y="556.0" type="qcurve" smooth="yes"/>
      <point x="1088.0" y="538.0"/>
      <point x="1324.0" y="427.0"/>
      <point x="1324.0" y="311.0" type="qcurve" smooth="yes"/>
      <point x="1324.0" y="300.0" type="line" smooth="yes"/>
      <point x="1324.0" y="168.0"/>
      <point x="1016.0" y="-24.0"/>
      <point x="696.0" y="-24.0" type="qcurve" smooth="yes"/>
      <point x="688.0" y="-24.0" type="line" smooth="yes"/>
      <point x="364.0" y="-24.0"/>
      <point x="85.0" y="142.0"/>
      <point x="63.0" y="302.0" type="qcurve" smooth="yes"/>
      <point x="58.0" y="334.0" type="line"/>
      <point x="134.0" y="334.0" type="line"/>
      <point x="137.0" y="339.0" type="line" smooth="yes"/>
      <point x="152.0" y="158.0"/>
      <point x="436.0" y="17.0"/>
      <point x="689.0" y="17.0" type="qcurve" smooth="yes"/>
      <point x="694.0" y="17.0" type="line" smooth="yes"/>
      <point x="992.0" y="17.0"/>
      <point x="1276.0" y="182.0"/>
      <point x="1276.0" y="304.0" type="qcurve" smooth="yes"/>
    </contour>
  </outline>
</glyph>
<glyph name="semicolon" format="2">
  <advance width="847.0"/>
  <outline>
    <contour>
      <point x="427.0" y="709.0" type="line" smooth="yes"/>
      <point x="447.0" y="709.0"/>
      <point x="467.0" y="756.0"/>
      <point x="467.0" y="801.0" type="qcurve" smooth="yes"/>
      <point x="467.0" y="829.0" type="line" smooth="yes"/>
      <point x="467.0" y="875.0"/>
      <point x="449.0" y="923.0"/>
      <point x="428.0" y="923.0" type="qcurve" smooth="yes"/>
      <point x="425.0" y="923.0" type="line" smooth="yes"/>
      <point x="406.0" y="923.0"/>
      <point x="387.0" y="875.0"/>
      <point x="387.0" y="829.0" type="qcurve" smooth="yes"/>
      <point x="387.0" y="801.0" type="line" smooth="yes"/>
      <point x="387.0" y="756.0"/>
      <point x="405.0" y="709.0"/>
      <point x="425.0" y="709.0" type="qcurve" smooth="yes"/>
    </contour>
    <contour>
      <point x="107.0" y="-151.0" type="line"/>
      <point x="379.0" y="160.0" type="line" smooth="yes"/>
      <point x="414.0" y="194.0"/>
      <point x="456.0" y="240.0"/>
      <point x="458.0" y="240.0" type="qcurve" smooth="yes"/>
      <point x="459.0" y="240.0" type="line" smooth="yes"/>
      <point x="476.0" y="240.0"/>
      <point x="501.0" y="193.0"/>
      <point x="474.0" y="137.0" type="qcurve" smooth="yes"/>
      <point x="469.0" y="128.0" type="line" smooth="yes"/>
      <point x="452.0" y="87.0"/>
      <point x="224.0" y="-114.0"/>
      <point x="134.0" y="-197.0" type="qcurve"/>
    </contour>
  </outline>
</glyph>
<glyph name="seven" format="2">
  <advance width="1230.0"/>
  <outline>
    <contour>
      <point x="8.0" y="1500.0" type="line"/>
      <point x="1221.0" y="1500.0" type="line"/>
      <point x="1223.0" y="1464.0" type="line"/>
      <point x="434.0" y="0.0" type="line"/>
      <point x="377.0" y="0.0" type="line"/>
      <point x="1161.0" y="1460.0" type="line"/>
      <point x="9.0" y="1460.0" type="line"/>
    </contour>
  </outline>
</glyph>
<glyph name="t" format="2">
  <advance width="801.0"/>
  <outline>
    <contour>
      <point x="803.0" y="956.0" type="line"/>
      <point x="16.0" y="956.0" type="line"/>
      <point x="16.0" y="1000.0" type="line"/>
      <point x="803.0" y="1000.0" type="line"/>
    </contour>
    <contour>
      <point x="377.0" y="326.0" type="line" smooth="yes"/>
      <point x="377.0" y="185.0"/>
      <point x="497.0" y="24.0"/>
      <point x="588.0" y="24.0" type="qcurve" smooth="yes"/>
      <point x="659.0" y="24.0"/>
      <point x="737.0" y="53.0"/>
      <point x="729.0" y="58.0" type="qcurve"/>
      <point x="793.0" y="28.0" type="line"/>
      <point x="787.0" y="15.0"/>
      <point x="704.0" y="-18.0"/>
      <point x="643.0" y="-18.0" type="qcurve"/>
      <point x="524.0" y="-18.0"/>
      <point x="337.0" y="191.0"/>
      <point x="337.0" y="368.0" type="qcurve" smooth="yes"/>
      <point x="337.0" y="1253.0" type="line"/>
      <point x="377.0" y="1253.0" type="line"/>
    </contour>
  </outline>
</glyph>
<glyph name="three" format="2">
  <advance width="1326.0"/>
  <outline>
    <contour>
      <point x="753.0" y="817.0" type="qcurve" smooth="yes"/>
      <point x="458.0" y="818.0" type="line"/>
      <point x="458.0" y="864.0" type="line"/>
      <point x="792.0" y="864.0" type="line" smooth="yes"/>
      <point x="954.0" y="863.0"/>
      <point x="1169.0" y="1012.0"/>
      <point x="1169.0" y="1149.0" type="qcurve" smooth="yes"/>
      <point x="1169.0" y="1177.0" type="line" smooth="yes"/>
      <point x="1169.0" y="1306.0"/>
      <point x="920.0" y="1478.0"/>
      <point x="659.0" y="1478.0" type="qcurve"/>
      <point x="646.0" y="1478.0" type="line"/>
      <point x="389.0" y="1478.0"/>
      <point x="125.0" y="1262.0"/>
      <point x="114.0" y="1128.0" type="qcurve" smooth="yes"/>
      <point x="111.0" y="1105.0" type="line"/>
      <point x="67.0" y="1105.0" type="line"/>
      <point x="73.0" y="1159.0" type="line" smooth="yes"/>
      <point x="88.0" y="1302.0"/>
      <point x="363.0" y="1523.0"/>
      <point x="640.0" y="1523.0" type="qcurve"/>
      <point x="656.0" y="1523.0" type="line"/>
      <point x="940.0" y="1523.0"/>
      <point x="1221.0" y="1339.0"/>
      <point x="1221.0" y="1174.0" type="qcurve" smooth="yes"/>
      <point x="1221.0" y="1157.0" type="line" smooth="yes"/>
      <point x="1221.0" y="1003.0"/>
      <point x="1014.0" y="848.0"/>
      <point x="892.0" y="838.0" type="qcurve"/>
      <point x="1023.0" y="819.0"/>
      <point x="1276.0" y="627.0"/>
      <point x="1276.0" y="463.0" type="qcurve" smooth="yes"/>
      <point x="1276.0" y="433.0" type="line" smooth="yes"/>
      <point x="1276.0" y="239.0"/>
      <point x="940.0" y="-25.0"/>
      <point x="690.0" y="-25.0" type="qcurve"/>
      <point x="671.0" y="-25.0" type="line"/>
      <point x="365.0" y="-25.0"/>
      <point x="55.0" y="226.0"/>
      <point x="41.0" y="392.0" type="qcurve" smooth="yes"/>
      <point x="37.0" y="438.0" type="line"/>
      <point x="78.0" y="440.0" type="line"/>
      <point x="81.0" y="386.0" type="line" smooth="yes"/>
      <point x="92.0" y="233.0"/>
      <point x="408.0" y="16.0"/>
      <point x="650.0" y="16.0" type="qcurve"/>
      <point x="679.0" y="16.0" type="line"/>
      <point x="954.0" y="16.0"/>
      <point x="1227.0" y="268.0"/>
      <point x="1227.0" y="444.0" type="qcurve" smooth="yes"/>
      <point x="1227.0" y="442.0" type="line" smooth="yes"/>
      <point x="1227.0" y="595.0"/>
      <point x="957.0" y="816.0"/>
    </contour>
  </outline>
</glyph>
<glyph name="two" format="2">
  <advance width="1361.0"/>
  <outline>
    <contour>
      <point x="1335.0" y="0.0" type="line"/>
      <point x="54.0" y="0.0" type="line"/>
      <point x="54.0" y="40.0" type="line"/>
      <point x="946.0" y="693.0" type="line" smooth="yes"/>
      <point x="1051.0" y="765.0"/>
      <point x="1235.0" y="985.0"/>
      <point x="1235.0" y="1128.0" type="qcurve" smooth="yes"/>
      <point x="1235.0" y="1151.0" type="line" smooth="yes"/>
      <point x="1235.0" y="1304.0"/>
      <point x="970.0" y="1485.0"/>
      <point x="705.0" y="1485.0" type="qcurve" smooth="yes"/>
      <point x="691.0" y="1485.0" type="line" smooth="yes"/>
      <point x="429.0" y="1485.0"/>
      <point x="133.0" y="1289.0"/>
      <point x="127.0" y="1119.0" type="qcurve" smooth="yes"/>
      <point x="126.0" y="1028.0" type="line"/>
      <point x="85.0" y="1028.0" type="line"/>
      <point x="87.0" y="1135.0" type="line" smooth="yes"/>
      <point x="90.0" y="1301.0"/>
      <point x="385.0" y="1524.0"/>
      <point x="670.0" y="1524.0" type="qcurve" smooth="yes"/>
      <point x="723.0" y="1524.0" type="line" smooth="yes"/>
      <point x="1005.0" y="1524.0"/>
      <point x="1278.0" y="1312.0"/>
      <point x="1278.0" y="1150.0" type="qcurve" smooth="yes"/>
      <point x="1278.0" y="1125.0" type="line" smooth="yes"/>
      <point x="1278.0" y="974.0"/>
      <point x="1096.0" y="725.0"/>
      <point x="978.0" y="639.0" type="qcurve" smooth="yes"/>
      <point x="164.0" y="38.0" type="line"/>
      <point x="1335.0" y="38.0" type="line"/>
    </contour>
  </outline>
</glyph>
<glyph name="u" format="2">
  <advance width="1469.0"/>
  <outline>
    <contour>
      <point x="1246.0" y="998.0" type="line"/>
      <point x="1246.0" y="-2.0" type="line"/>
      <point x="1206.0" y="-2.0" type="line"/>
      <point x="1206.0" y="998.0" type="line"/>
    </contour>
    <contour>
      <point x="1212.0" y="139.0" type="line"/>
      <point x="1152.0" y="57.0"/>
      <point x="837.0" y="-42.0"/>
      <point x="670.0" y="-42.0" type="qcurve" smooth="yes"/>
      <point x="457.0" y="-42.0"/>
      <point x="206.0" y="181.0"/>
      <point x="206.0" y="376.0" type="qcurve" smooth="yes"/>
      <point x="207.0" y="998.0" type="line"/>
      <point x="247.0" y="998.0" type="line"/>
      <point x="247.0" y="356.0" type="line" smooth="yes"/>
      <point x="247.0" y="167.0"/>
      <point x="491.0" y="-4.0"/>
      <point x="690.0" y="-4.0" type="qcurve" smooth="yes"/>
      <point x="836.0" y="-4.0"/>
      <point x="1140.0" y="83.0"/>
      <point x="1204.0" y="164.0" type="qcurve"/>
    </contour>
  </outline>
</glyph>
<glyph name="w" format="2">
  <advance width="1888.0"/>
  <outline>
    <contour>
      <point x="456.0" y="-10.0" type="line"/>
      <point x="20.0" y="1000.0" type="line"/>
      <point x="62.0" y="1000.0" type="line"/>
      <point x="498.0" y="18.0" type="line"/>
      <point x="908.0" y="1010.0" type="line"/>
      <point x="989.0" y="1010.0" type="line"/>
      <point x="1379.0" y="18.0" type="line"/>
      <point x="1827.0" y="1000.0" type="line"/>
      <point x="1868.0" y="1000.0" type="line"/>
      <point x="1418.0" y="-10.0" type="line"/>
      <point x="1338.0" y="-10.0" type="line"/>
      <point x="947.0" y="1035.0" type="line"/>
      <point x="536.0" y="-10.0" type="line"/>
    </contour>
  </outline>
</glyph>
<glyph name="x" format="2">
  <advance width="1230.0"/>
  <outline>
    <contour>
      <point x="22.0" y="0.0" type="line"/>
      <point x="1112.0" y="1000.0" type="line"/>
      <point x="1189.0" y="1000.0" type="line"/>
      <point x="99.0" y="0.0" type="line"/>
    </contour>
    <contour>
      <point x="1130.0" y="0.0" type="line"/>
      <point x="50.0" y="1000.0" type="line"/>
      <point x="129.0" y="1000.0" type="line"/>
      <point x="1208.0" y="0.0" type="line"/>
    </contour>
  </outline>
</glyph>
<glyph name="y" format="2">
  <advance width="1276.0"/>
  <outline>
    <contour>
      <point x="604.0" y="-17.0" type="qcurve"/>
      <point x="10.0" y="1000.0" type="line"/>
      <point x="64.0" y="1000.0" type="line"/>
      <point x="638.0" y="-20.0" type="line"/>
      <point x="1205.0" y="1000.0" type="line"/>
      <point x="1266.0" y="1000.0" type="line"/>
      <point x="661.0" y="-33.0" type="line" smooth="yes"/>
      <point x="519.0" y="-289.0"/>
      <point x="273.0" y="-500.0"/>
      <point x="162.0" y="-500.0" type="qcurve" smooth="yes"/>
      <point x="109.0" y="-500.0"/>
      <point x="54.0" y="-500.0"/>
      <point x="31.0" y="-493.0" type="qcurve"/>
      <point x="43.0" y="-451.0" type="line"/>
      <point x="64.0" y="-456.0"/>
      <point x="125.0" y="-460.0"/>
      <point x="163.0" y="-460.0" type="qcurve" smooth="yes"/>
      <point x="256.0" y="-460.0"/>
      <point x="514.0" y="-228.0"/>
    </contour>
  </outline>
</glyph>
<glyph name="zero" format="2">
  <advance width="1590.0"/>
  <outline>
    <contour>
      <point x="793.0" y="-25.0" type="line" smooth="yes"/>
      <point x="468.0" y="-25.0"/>
      <point x="97.0" y="402.0"/>
      <point x="97.0" y="724.0" type="qcurve" smooth="yes"/>
      <point x="97.0" y="775.0" type="line" smooth="yes"/>
      <point x="97.0" y="1097.0"/>
      <point x="463.0" y="1524.0"/>
      <point x="788.0" y="1524.0" type="qcurve" smooth="yes"/>
      <point x="796.0" y="1524.0" type="line" smooth="yes"/>
      <point x="1126.0" y="1524.0"/>
      <point x="1493.0" y="1097.0"/>
      <point x="1493.0" y="775.0" type="qcurve" smooth="yes"/>
      <point x="1493.0" y="724.0" type="line" smooth="yes"/>
      <point x="1493.0" y="402.0"/>
      <point x="1131.0" y="-25.0"/>
      <point x="801.0" y="-25.0" type="qcurve" smooth="yes"/>
    </contour>
    <contour>
      <point x="799.0" y="13.0" type="line" smooth="yes"/>
      <point x="1111.0" y="13.0"/>
      <point x="1453.0" y="438.0"/>
      <point x="1453.0" y="722.0" type="qcurve" smooth="yes"/>
      <point x="1453.0" y="772.0" type="line" smooth="yes"/>
      <point x="1453.0" y="1055.0"/>
      <point x="1116.0" y="1486.0"/>
      <point x="799.0" y="1486.0" type="qcurve" smooth="yes"/>
      <point x="788.0" y="1486.0" type="line" smooth="yes"/>
      <point x="481.0" y="1486.0"/>
      <point x="137.0" y="1055.0"/>
      <point x="137.0" y="772.0" type="qcurve" smooth="yes"/>
      <point x="137.0" y="722.0" type="line" smooth="yes"/>
      <point x="137.0" y="438.0"/>
      <point x="475.0" y="13.0"/>
      <point x="788.0" y="13.0" type="qcurve" smooth="yes"/>
    </contour>
  </outline>
</glyph>
